<?xml version="1.0" encoding="UTF-8"?>
<svg id="Camada_2" data-name="Camada 2" xmlns="http://www.w3.org/2000/svg" viewBox="0 0 56.27 75.86">
  <defs>
    <style>
      .cls-1 {
        fill: #333;
      }
    </style>
  </defs>
  <g id="Layer_1" data-name="Layer 1">
    <g>
      <g>
        <path class="cls-1" d="M23.52,19.3c-3.89.9-7.1,3.21-9.86,6.67,2.41,1.41,4.14,4.02,6.52,5.58,1.4.92,2.89,1.64,4.46,2.15-2.03-2.15-2.98-5.43-2.95-8.32.02-1.93.58-4.41,1.83-6.09Z"/>
        <path class="cls-1" d="M28.86,36.02c-1.34-.13-2.68-.34-3.98-.68,1.24.43,2.59.64,3.98.68Z"/>
        <path class="cls-1" d="M42.11,22.92c-.39-.35-.8-.68-1.22-1,.01.05.02.11.01.16.41.27.81.55,1.2.83Z"/>
        <path class="cls-1" d="M28.28,25.45c.07-.03.15-.06.22-.08.02,0,.04,0,.06,0,.06-.03.13-.05.19-.09.1-.07.22-.09.33-.07.17-.07.34-.14.52-.19-.3,0-.6.04-.88.11-.16.1-.3.22-.44.34Z"/>
        <path class="cls-1" d="M52.13,24.34c0-.08-.04-.16-.06-.24-.14-.61-.28-1.23-.43-1.84-.07-.29-.16-.58-.24-.87-.19-.67-.37-1.34-.58-2.01-.13-.4-.3-.78-.45-1.17-.19-.48-.37-.96-.58-1.42-.28-.6-.59-1.18-.89-1.77-.3-.59-.56-1.19-.89-1.76-.44-.77-.91-1.52-1.41-2.25-.65-.94-1.31-1.89-2.04-2.77-.8-.97-1.64-1.91-2.55-2.77-.81-.78-1.72-1.45-2.61-2.14-.48-.37-.99-.71-1.52-.99-.83-.44-1.69-.83-2.54-1.23-.27-.13-.57-.21-.86-.29-.46-.13-.92-.24-1.39-.34-.66-.15-1.32-.34-1.99-.4-.92-.08-1.86-.09-2.79-.04-.82.04-1.64.19-2.46.29-.05,0-.09.03-.13.04-.39.14-.79.27-1.18.42-.5.19-1.03.33-1.48.6-.88.52-1.74,1.09-2.58,1.69-1.8,1.3-3.15,3.02-4.44,4.79-.26.36-.49.74-.73,1.12-.29.45-.57.91-.84,1.37-.39.66-.79,1.31-1.16,1.99-.33.61-.64,1.24-.94,1.87-.28.56-.55,1.12-.81,1.69-.23.51-.45,1.02-.68,1.53-.19.44-.4.87-.58,1.31-.21.52-.39,1.05-.6,1.56-.29.71-.62,1.4-.91,2.11-.29.71-.55,1.43-.82,2.14-.09.24-.19.47-.29.71-.22.51-.45,1.02-.66,1.54-.2.49-.38,1-.59,1.49-.21.48-.46.94-.68,1.42-.28.6-.53,1.21-.8,1.82-.22.49-.48.96-.68,1.45-.26.62-.48,1.25-.7,1.88-.13.36-.24.73-.33,1.1-.12.49-.21.98-.32,1.47-.13.57-.34,1.13-.39,1.7-.11,1.19-.06,2.38.21,3.56,0,.01,0,.02.01.03.23.53.48,1.05.7,1.58.28.68.8,1.18,1.32,1.66.62.57,1.34,1,2.12,1.32.73.3,1.44.65,2.18.9.68.23,1.4.38,2.11.52.66.13,1.32.22,1.99.27.8.06,1.6.08,2.4.08,1.57,0,3.14-.04,4.7-.07.14,0,.28-.01.42-.03,1.46-.16,2.92-.32,4.38-.48.15-.02.3-.07.45-.1.7-.13,1.4-.26,2.1-.38.61-.11,1.22-.21,1.84-.31.05,0,.09-.04.13-.05.52-.13,1.04-.27,1.56-.4.44-.11.88-.21,1.32-.33.42-.12.84-.27,1.26-.41.3-.09.6-.18.9-.27.36-.11.72-.2,1.07-.33.55-.21,1.1-.44,1.65-.65.52-.2,1.05-.37,1.56-.59.65-.28,1.28-.6,1.91-.92.89-.45,1.8-.88,2.64-1.41,1.04-.66,2.01-1.41,3.01-2.13,1.01-.73,1.89-1.59,2.63-2.59.41-.55.83-1.1,1.2-1.68.26-.4.47-.83.66-1.26.26-.57.5-1.14.71-1.73.14-.38.18-.8.3-1.19.26-.88.43-1.77.43-2.69,0-.38,0-.75,0-1.13.03,0,.05,0,.08,0-.11-1.19-.21-2.38-.32-3.57ZM46.26,27.61s-.01.09-.03.13c-1.78,4.08-7.07,7.63-11.21,8.85-4.22,1.24-9.45,1.34-13.23-1.21-2.92-1.97-6.23-4.28-8.41-7.08-.17-.22-1-1.81-.77-2.3-1.35-.61,1.7-3.55,2.04-3.84,2.63-2.26,5.77-4.91,9.12-6.03,3.96-1.32,8.78-.03,12.45,1.57,4.13,1.8,8.73,4.54,10.7,8.8.26.57-.19,1.08-.65,1.11Z"/>
        <path class="cls-1" d="M37.09,26.28c-1.24-4.84-6.14-7.81-11.01-6.99-.16.03-.29,0-.41-.06-1.82,1.35-2.6,3.56-2.54,6.17.07,3.12,1.18,7.33,4.38,8.69,4.47,1.9,10.83-2.92,9.58-7.8ZM28.43,30.75c-1.57-.57-2.69-2.25-2.33-3.93-.1-.67.01-1.35.44-1.93,1.54-2.12,6.91-1.89,7.05,1.27.11,2.38-2.59,5.54-5.16,4.59Z"/>
        <path class="cls-1" d="M35.33,20.56c1.77,1.56,3.03,3.67,3.29,6.04.3,2.81-1.23,5.65-3.54,7.46,1.82-.47,3.52-1.29,5-2.64,1.41-1.3,2.77-3.42,4.47-4.37-2.53-2.7-5.72-5.02-9.22-6.49Z"/>
      </g>
      <path class="cls-1" d="M5.45,53.59c.52-.1.79-.35.79-.74,0-.25-.05-.41-.15-.48-.33-.25-.71-.37-1.11-.37-.95,0-1.85.52-2.73,1.57-1.5,1.8-2.25,3.99-2.25,6.57,0,.48.03.97.09,1.48.18,1.64.3,2.58.37,2.81.1.32.26.66.47,1.01.21.36.42.7.62,1.04.81,1.32,1.57,2.19,2.27,2.6.39.16.68.25.87.28.17.04.34-.03.49-.22.15-.19.23-.4.23-.63s-.12-.41-.35-.55c-.22-.09-.44-.18-.65-.28-.52-.31-.97-.81-1.33-1.53-.15-.29-.39-.9-.72-1.83-.41-1.13-.61-2.34-.61-3.62,0-2.72.81-4.94,2.44-6.65.16-.17.58-.33,1.27-.46ZM13.84,73.07c-.81,0-1.41.61-1.41,1.4s.6,1.4,1.41,1.4,1.41-.61,1.41-1.4-.6-1.4-1.41-1.4ZM13.84,75.42c-.53,0-.92-.41-.92-.95s.39-.95.92-.95.92.41.92.95-.39.95-.92.95ZM23.53,75.15v-1.14c0-.33-.11-.56-.27-.7-.19-.17-.47-.24-.8-.24-.4,0-.68.1-.89.23v.48c.2-.15.48-.27.82-.27.23,0,.39.05.49.15.1.1.15.24.15.44v.22c-.17-.04-.36-.07-.57-.07-.28,0-.55.05-.75.18-.21.14-.35.35-.35.65,0,.26.11.46.28.59.18.14.42.19.63.19.36,0,.67-.15.82-.29h.01c.1.19.3.28.52.28.1,0,.19-.02.26-.05v-.41s-.1.04-.16.04c-.15,0-.21-.12-.21-.28ZM23.04,75.19c-.16.13-.41.23-.67.23-.29,0-.51-.13-.51-.39,0-.31.33-.41.66-.41.17,0,.37.03.52.07v.5ZM19.69,71.87c-.19,0-.34.15-.34.34s.15.34.34.34.34-.15.34-.34-.15-.34-.34-.34ZM14.49,71.85h-.55l-.42.89h.37l.6-.89ZM7.55,74.29h.88v.92c-.22.11-.5.18-.8.18-.98,0-1.56-.72-1.56-1.56s.62-1.55,1.55-1.55c.47,0,.9.17,1.22.43v-.59c-.28-.17-.69-.33-1.21-.33-1.22,0-2.07.88-2.07,2.04s.87,2.01,2.04,2.01c.5,0,1.02-.16,1.36-.4v-1.62h-1.4v.45ZM17.19,73.53h-.01v-.4h-.49v2.67h.49v-1.74c.17-.29.42-.47.79-.47.06,0,.12,0,.19.02v-.48c-.06-.02-.12-.02-.17-.02-.31,0-.61.16-.79.42ZM15.99,54.14c-.52-.31-.98-.46-1.37-.46-.1,0-.19,0-.26.02-.71.17-1.43.36-2.14.55-.81.22-1.49.47-2.03.74-.47.19-.93.38-1.4.57-.49.25-.75.58-.76,1-.01.45.39.76,1.2.92-.09,1.27-.15,1.96-.17,2.07s-.15.23-.36.34c-.21.11-.32.23-.34.36-.04.26.14.53.55.81-.13,1-.13,2.14,0,3.4.04.44.23.83.57,1.18.33.35.71.57,1.11.68,1.29.33,2.82.47,4.58.41.23-.02.41-.12.53-.32.12-.2.16-.41.12-.64-.13-.7-.4-1-.81-.92-.09,0-.2.05-.33.16-.13.11-.25.16-.37.16-1.69.07-2.87-.13-3.56-.61-.12-.25-.17-.58-.17-1,0-.62.14-1.48.41-2.55.41-.16.95-.25,1.64-.26.81-.01,1.37-.06,1.68-.13.17.02.32-.04.44-.17.18-.19.28-.29.31-.31.1-.06.15-.14.15-.24,0-.09-.1-.28-.31-.57-.29-.17-.64-.26-1.05-.26-.22,0-.56.04-1.03.11-.47.07-.81.11-1.03.11-.31,0-.57-.04-.81-.13.06-1.31.15-2.15.28-2.53.54-.22,1.33-.47,2.38-.76,1.05-.29,1.84-.55,2.38-.76.1-.07.15-.17.15-.28,0-.07-.03-.19-.09-.35-.06-.16-.09-.27-.11-.33ZM19.44,75.8h.49v-2.67h-.49v2.67ZM10.51,75.8h.49v-4.15h-.49v4.15ZM48.43,73.07c-.37,0-.7.17-.93.4h-.01v-.34h-.49v2.67h.49v-1.83c.19-.26.53-.45.84-.45.15,0,.32.04.43.17.09.1.13.27.13.54v1.56h.49v-1.65c0-.41-.08-.62-.22-.79-.17-.19-.42-.29-.71-.29ZM44.71,52c-.95,0-1.85.52-2.73,1.57-1.5,1.8-2.25,3.99-2.25,6.57,0,.48.03.97.09,1.48.18,1.64.3,2.58.37,2.81.1.32.26.66.47,1.01.21.36.42.7.62,1.04.81,1.32,1.57,2.19,2.27,2.6.39.16.68.25.87.28.17.04.34-.03.49-.22.15-.19.23-.4.23-.63s-.12-.41-.35-.55c-.22-.09-.44-.18-.65-.28-.52-.31-.97-.81-1.33-1.53-.15-.29-.39-.9-.72-1.83-.41-1.13-.61-2.34-.61-3.62,0-2.72.81-4.94,2.44-6.65.16-.17.58-.33,1.27-.46.52-.1.79-.35.79-.74,0-.25-.05-.41-.15-.48-.33-.25-.71-.37-1.11-.37ZM52.12,73.07c-.72,0-1.33.55-1.33,1.4s.62,1.4,1.44,1.4c.35,0,.72-.1.96-.25v-.52c-.24.18-.55.33-.92.33-.53,0-.92-.29-.99-.81h2.04c.01-.07.02-.16.02-.24,0-.84-.56-1.29-1.22-1.29ZM51.29,74.22c.09-.49.47-.71.82-.71.32,0,.71.18.75.71h-1.57ZM44.15,73.07c-.81,0-1.41.61-1.41,1.4s.6,1.4,1.41,1.4,1.41-.61,1.41-1.4-.6-1.4-1.41-1.4ZM44.15,75.42c-.53,0-.92-.41-.92-.95s.39-.95.92-.95.92.41.92.95-.39.95-.92.95ZM56.14,64.96c-.79-2.23-1.54-5.05-2.27-8.49-.07-.6-.15-1.19-.24-1.79-.12-.7-.38-1.22-.79-1.57-.16-.13-.34-.2-.55-.2-.28,0-.46.1-.55.31-.38.92-.81,2.23-1.29,3.95-.57,1.98-.98,3.33-1.24,4.06-.03.1-.16.18-.4.23-.24.05-.39.12-.46.2-.07.08-.1.16-.1.23,0,.09.1.21.31.37s.3.31.28.44c-.04.45-.28,1.21-.72,2.27-.36.93-.52,1.67-.48,2.23.03.28.28.49.76.65.38.12.63.04.74-.22.23-.55.47-1.36.72-2.42.26-1.15.47-1.95.63-2.4.32-.28.76-.45,1.33-.52.49-.04.99-.09,1.48-.13.28.74.52,1.67.72,2.77.19,1.02.64,1.59,1.35,1.72.09.01.25-.09.5-.31.25-.22.37-.47.37-.76,0-.18-.04-.38-.13-.61ZM51.12,60.86c.32-1.21.7-2.41,1.13-3.62.13.58.27,1.16.41,1.75.15.67.24,1.27.28,1.81-.99,0-1.6.02-1.83.07ZM37.19,75.8h.52v-3.93h-.52v3.93ZM29.17,73.21h-.01c-.17-.07-.37-.14-.64-.14-.84,0-1.42.62-1.42,1.44s.59,1.35,1.31,1.35c.32,0,.57-.1.75-.23h.01v.17h.49v-4.15h-.49v1.55ZM29.17,75.2c-.19.13-.43.23-.69.23-.55,0-.88-.41-.88-.94s.35-.98.92-.98c.24,0,.48.08.66.17v1.53ZM32.43,73.07c-.72,0-1.33.55-1.33,1.4s.62,1.4,1.44,1.4c.35,0,.72-.1.96-.25v-.52c-.24.18-.55.33-.92.33-.53,0-.92-.29-.99-.81h2.04c.01-.07.02-.16.02-.24,0-.84-.56-1.29-1.22-1.29ZM31.6,74.22c.09-.49.47-.71.82-.71.32,0,.71.18.75.71h-1.57ZM23.85,56.04c-1.34-1.11-2.62-1.79-3.84-2.05-.19.01-.38.04-.57.07-.25.03-.41.13-.48.31-.03.07-.04.15-.04.22,0,.16.09.33.28.52.31.32.47.49.48.5.07.78.11,1.65.11,2.6,0,.71-.03,1.77-.09,3.19-.06,1.41-.09,2.47-.09,3.19s.02,1.35.07,1.96c.06.13.16.22.3.28.14.06.27.11.38.15.12.04.22.07.31.07.18,0,.35-.09.52-.28.17-.19.33-.37.48-.55.44-.26.92-.73,1.46-1.4.45-.55.9-1.11,1.35-1.68.2-.23.39-.55.57-.94.13-.33.27-.67.41-1,.19-.42.28-.87.28-1.33,0-.9-.35-1.87-1.05-2.9-.22-.32-.5-.63-.85-.92ZM21.47,64.15c-.04-2.72-.01-5.29.09-7.72,1.43.7,2.2,1.51,2.33,2.42.03.2.04.41.04.61,0,1.48-.82,3.05-2.47,4.69ZM36.85,54.14c-.52-.31-.98-.46-1.37-.46-.1,0-.19,0-.26.02-.71.17-1.43.36-2.14.55-.81.22-1.49.47-2.03.74-.47.19-.93.38-1.4.57-.49.25-.75.58-.76,1-.01.45.39.76,1.2.92-.09,1.27-.15,1.96-.17,2.07-.03.12-.15.23-.36.34-.21.11-.32.23-.34.36-.04.26.14.53.55.81-.13,1-.13,2.14,0,3.4.04.44.23.83.57,1.18.33.35.71.57,1.11.68,1.29.33,2.82.47,4.58.41.23-.02.41-.12.53-.32.12-.2.16-.41.12-.64-.13-.7-.4-1-.81-.92-.09,0-.2.05-.33.16-.13.11-.25.16-.37.16-1.69.07-2.87-.13-3.56-.61-.12-.25-.17-.58-.17-1,0-.62.14-1.48.41-2.55.41-.16.95-.25,1.64-.26.81-.01,1.37-.06,1.68-.13.17.02.32-.04.44-.17.18-.19.28-.29.31-.31.1-.06.15-.14.15-.24,0-.09-.1-.28-.31-.57-.29-.17-.64-.26-1.05-.26-.22,0-.56.04-1.03.11-.47.07-.81.11-1.03.11-.31,0-.57-.04-.81-.13.06-1.31.15-2.15.28-2.53.54-.22,1.33-.47,2.38-.76,1.05-.29,1.84-.55,2.38-.76.1-.07.15-.17.15-.28,0-.07-.03-.19-.09-.35-.06-.16-.09-.27-.11-.33ZM40.76,74.3c-.12.3-.24.59-.36.89h-.01c-.11-.29-.22-.56-.34-.86l-.49-1.21h-.53l1.12,2.67h.49l1.12-2.67h-.51l-.48,1.17Z"/>
    </g>
  </g>
</svg>